<?xml version="1.0" standalone="no"?>
<!DOCTYPE svg PUBLIC "-//W3C//DTD SVG 20010904//EN"
 "http://www.w3.org/TR/2001/REC-SVG-20010904/DTD/svg10.dtd">
<svg version="1.0" xmlns="http://www.w3.org/2000/svg"
 width="511.000000pt" height="511.000000pt" viewBox="0 0 511.000000 511.000000"
 preserveAspectRatio="xMidYMid meet">
<metadata>
Created by potrace 1.11, written by Peter Selinger 2001-2013
</metadata>
<g transform="translate(0.000000,511.000000) scale(0.100000,-0.100000)"
fill="#000000" stroke="none">
<path d="M700 3660 c-87 -15 -190 -64 -288 -137 -159 -117 -162 -120 -210
-223 -25 -52 -62 -114 -84 -138 -47 -52 -51 -61 -74 -192 -26 -149 -26 -452
-1 -570 27 -124 72 -249 137 -385 106 -219 195 -308 419 -417 80 -38 199 -88
265 -111 l121 -41 265 -4 265 -3 90 29 c347 114 670 379 779 639 18 43 64 130
103 193 39 63 76 133 82 155 51 167 158 347 290 487 55 59 80 76 185 128 112
55 210 94 346 140 93 31 385 70 522 70 94 0 283 -47 376 -94 111 -56 208 -140
300 -261 66 -86 86 -121 103 -179 12 -39 27 -82 34 -96 35 -68 58 -340 35
-420 -5 -19 -31 -70 -57 -113 -41 -67 -64 -92 -151 -161 -132 -104 -181 -129
-322 -163 -173 -42 -298 -40 -490 9 -241 62 -368 72 -400 33 -10 -12 -10 -18
1 -32 20 -24 139 -76 259 -113 58 -18 125 -43 150 -55 101 -51 199 -65 478
-67 l257 -2 115 38 c63 21 135 49 160 61 61 31 133 104 181 185 22 37 61 90
86 116 25 27 54 67 64 89 22 47 24 144 8 275 -5 47 -14 132 -18 190 -5 68 -16
125 -30 160 -12 30 -28 86 -36 125 -10 47 -33 102 -75 176 -51 91 -77 124
-185 233 -69 69 -130 126 -134 126 -5 0 -25 13 -46 30 -20 16 -88 57 -151 90
-113 60 -181 81 -359 111 -33 6 -101 17 -151 26 -92 16 -127 13 -239 -16 -22
-6 -59 -11 -83 -11 -24 0 -82 -11 -130 -24 -48 -13 -107 -27 -132 -31 -57 -9
-290 -97 -440 -165 -143 -65 -270 -147 -290 -186 -8 -16 -38 -57 -67 -92 -29
-35 -60 -77 -68 -93 -20 -38 -42 -37 -63 3 -9 18 -38 55 -63 83 -26 27 -53 62
-60 76 -13 24 -159 152 -238 209 -37 26 -328 171 -401 200 -129 51 -323 92
-495 106 -185 14 -374 16 -445 4z m464 -57 c6 -4 45 -8 87 -8 42 0 83 -6 90
-12 8 -6 32 -13 54 -17 40 -7 103 -23 205 -53 47 -14 185 -78 200 -93 7 -7
130 -67 165 -80 24 -9 27 -13 15 -21 -11 -8 -9 -9 9 -4 19 6 23 4 18 -8 -4
-12 -2 -14 10 -10 8 3 18 2 22 -3 9 -14 100 -94 156 -139 61 -49 115 -103 115
-116 0 -5 -9 -1 -19 8 -11 9 -18 20 -15 24 3 5 -7 11 -21 15 -14 3 -25 10 -25
14 0 4 -14 13 -31 20 -24 10 -36 11 -50 2 -15 -10 -19 -9 -19 3 0 8 8 15 17
15 26 0 -95 112 -144 134 -24 11 -43 23 -43 27 0 5 -7 6 -15 3 -8 -4 -15 -2
-15 4 0 6 6 12 13 15 17 6 7 15 -23 20 -14 2 -19 2 -12 0 6 -3 12 -9 12 -14 0
-12 -1 -12 -44 6 -39 17 -50 40 -13 30 20 -5 20 -5 -3 9 -21 12 -26 12 -28 1
-4 -15 -32 -9 -32 7 0 5 5 6 10 3 6 -3 10 -3 10 2 0 4 -12 13 -26 20 -22 10
-25 10 -20 -3 5 -12 1 -14 -17 -9 -32 10 -45 25 -22 25 19 1 19 1 1 11 -10 6
-21 7 -25 3 -10 -15 -29 -14 -35 1 -3 8 -1 15 5 15 6 0 7 5 4 10 -5 8 -11 7
-21 -1 -7 -6 -22 -8 -31 -5 -15 6 -15 8 -3 17 11 8 9 9 -8 4 -13 -4 -36 -2
-50 3 -15 5 -55 18 -89 27 -34 10 -60 22 -57 26 3 5 -6 9 -20 9 -14 0 -26 5
-26 10 0 15 -47 12 -53 -2 -3 -7 -6 -3 -6 10 -1 15 -7 22 -21 22 -11 0 -20 -5
-20 -11 0 -5 4 -8 9 -4 5 3 12 1 16 -5 3 -5 -3 -10 -14 -10 -12 0 -21 5 -21
10 0 14 -83 13 -115 -2 -14 -6 -25 -14 -25 -18 0 -3 -39 -4 -86 -2 -56 3 -89
1 -97 -7 -8 -8 -5 -11 13 -12 80 -5 108 -8 135 -17 27 -9 25 -10 -30 -13 -33
-1 -86 -1 -117 0 -39 2 -58 -1 -58 -9 0 -6 5 -8 10 -5 6 3 10 2 10 -3 0 -9
-54 -22 -92 -22 -33 0 -19 28 18 35 20 3 33 9 30 12 -9 10 -121 4 -124 -7 -2
-5 -11 -3 -19 6 -13 12 -13 18 -4 24 9 5 10 10 3 14 -6 3 -13 2 -17 -4 -3 -5
-17 -10 -31 -10 -14 0 -22 4 -19 10 3 6 2 10 -4 10 -5 0 -13 -4 -16 -10 -3 -5
-15 -10 -26 -10 -24 0 -26 -20 -1 -21 12 0 10 -3 -7 -10 -13 -5 -26 -7 -29 -4
-3 3 1 5 9 6 8 1 3 4 -11 8 -19 5 -31 1 -47 -16 -13 -12 -23 -28 -24 -35 0 -7
-4 -4 -8 7 -8 19 -8 19 -15 -3 -4 -12 -17 -27 -29 -34 -21 -12 -25 -13 -44
-17 -5 -1 -2 -5 6 -10 12 -8 12 -12 2 -25 -8 -9 -20 -16 -27 -16 -8 0 -11 -6
-7 -16 5 -14 3 -13 -15 2 -25 21 -27 25 -9 18 8 -3 20 2 27 11 11 13 10 18 -6
30 -19 15 -19 15 0 8 15 -5 18 -3 14 8 -8 20 47 83 66 76 8 -3 29 5 47 19 18
13 41 24 51 24 10 0 28 5 41 12 12 6 31 15 41 21 11 5 46 12 79 15 34 3 53 8
46 13 -26 14 -72 5 -146 -27 -17 -8 -39 -14 -50 -13 -19 0 -19 0 72 40 22 10
54 20 70 23 44 7 445 -3 459 -11z m57 -64 c-23 -4 -53 -11 -64 -15 -19 -6 -20
-5 -8 10 9 11 28 16 65 15 l51 -1 -44 -9z m66 -15 c-3 -3 -12 -4 -19 -1 -8 3
-5 6 6 6 11 1 17 -2 13 -5z m50 -17 c-4 -10 -30 -13 -98 -14 -52 0 -78 1 -59
4 19 2 39 8 44 13 5 5 17 3 27 -3 15 -9 24 -9 39 1 12 7 25 10 30 7 6 -4 10
-1 10 6 0 7 3 10 6 6 4 -3 4 -12 1 -20z m-847 4 c0 -5 -7 -12 -16 -15 -14 -5
-15 -4 -4 9 14 17 20 19 20 6z m176 -26 c-16 -9 -34 -14 -40 -11 -6 2 0 8 14
14 39 16 59 14 26 -3z m744 5 c0 -5 -5 -10 -11 -10 -5 0 -7 5 -4 10 3 6 8 10
11 10 2 0 4 -4 4 -10z m-850 -28 c0 -7 -34 -44 -78 -84 -10 -10 -25 -18 -32
-18 -7 0 -1 11 14 25 14 13 26 29 26 35 0 5 9 10 20 10 13 0 20 7 20 20 0 11
7 20 15 20 8 0 15 -3 15 -8z m1017 -39 c10 -13 15 -13 27 -4 10 8 16 9 21 1 3
-5 0 -10 -9 -10 -8 0 -16 -5 -18 -11 -3 -8 -20 -1 -47 16 -37 25 -46 27 -72
18 -16 -6 -31 -7 -34 -3 -16 26 113 19 132 -7z m-70 -9 c-3 -3 -12 -4 -19 -1
-8 3 -5 6 6 6 11 1 17 -2 13 -5z m199 -52 c-3 -2 -13 1 -24 7 -10 5 -30 7 -43
4 -23 -5 -23 -5 -4 10 18 14 23 14 47 -1 15 -9 26 -18 24 -20z m-1393 -17 c-3
-9 -8 -14 -10 -11 -3 3 -2 9 2 15 9 16 15 13 8 -4z m1037 -24 c175 -36 255
-63 424 -148 153 -77 317 -187 438 -296 110 -98 115 -114 68 -231 -137 -338
-281 -532 -508 -683 -211 -141 -334 -178 -552 -170 -151 6 -212 20 -339 77
-47 21 -97 41 -111 45 -87 26 -203 116 -252 195 -30 49 -129 309 -143 377 -28
130 -13 424 26 513 59 133 177 273 272 322 60 30 126 36 342 32 161 -3 212 -8
335 -33z m444 28 c23 -6 48 -19 55 -31 11 -18 10 -19 -10 -13 -13 4 -24 2 -29
-4 -5 -9 -10 -7 -20 4 -11 13 -10 15 2 10 9 -4 15 0 15 10 0 8 -9 15 -21 15
-12 0 -28 5 -36 10 -20 13 -9 12 44 -1z m-1507 -49 c-6 -29 6 -43 16 -17 3 6
4 -3 4 -20 -2 -37 -22 -44 -30 -11 -4 12 -9 19 -13 15 -3 -3 -3 -14 1 -24 4
-10 8 -40 8 -66 -1 -38 -6 -54 -27 -76 -14 -15 -26 -32 -26 -38 0 -7 -5 -24
-12 -40 -6 -15 -13 -37 -15 -47 -5 -28 -13 -33 -24 -16 -9 13 -10 13 -7 0 4
-27 -12 -88 -27 -100 -12 -10 -14 -46 -11 -212 2 -130 7 -203 15 -211 6 -6 11
-25 11 -42 0 -35 24 -116 46 -157 8 -14 14 -33 14 -41 0 -8 13 -39 28 -70 22
-43 31 -54 40 -45 7 7 12 8 12 2 0 -5 -5 -15 -10 -20 -7 -7 -5 -17 5 -30 10
-14 14 -15 15 -5 0 11 4 9 15 -5 8 -10 14 -23 15 -29 0 -5 -4 -3 -10 5 -5 8
-12 11 -16 8 -9 -10 29 -80 59 -110 13 -13 26 -31 29 -39 3 -8 9 -11 13 -7 4
4 2 14 -5 23 -17 21 -8 19 18 -4 27 -22 29 -46 5 -37 -12 5 -10 -1 7 -16 40
-38 84 -66 113 -73 15 -4 27 -11 27 -16 0 -5 11 -9 24 -9 13 0 29 -6 35 -14 7
-8 30 -17 52 -21 21 -4 41 -11 44 -15 3 -5 13 -6 22 -3 12 5 15 2 10 -9 -4
-12 0 -15 16 -12 12 2 16 2 9 -2 -25 -12 -11 -24 38 -30 28 -4 50 -9 50 -13 0
-3 20 -5 45 -3 37 3 45 1 45 -13 0 -11 5 -15 15 -11 8 3 15 2 15 -3 0 -4 6 -8
13 -9 6 0 35 -3 62 -7 28 -4 88 -7 135 -6 47 0 98 -5 113 -11 18 -7 31 -8 35
-2 4 5 39 16 77 23 100 18 98 17 120 26 38 14 90 40 96 49 4 5 12 5 18 2 6 -4
11 -3 11 2 0 5 18 12 40 15 21 3 52 14 69 26 16 12 37 21 48 21 11 0 26 14 38
36 10 19 32 42 47 50 15 8 28 19 28 24 0 6 10 10 21 10 19 0 20 2 8 17 -13 15
-12 16 9 10 27 -7 52 1 52 15 0 6 -7 8 -15 4 -31 -12 -13 4 20 18 20 9 44 30
56 51 12 19 30 40 40 46 11 5 19 16 19 24 0 7 9 17 20 20 16 5 19 12 14 27 -5
17 -3 20 10 15 11 -5 16 -1 16 13 0 11 5 20 10 20 6 0 10 7 10 15 0 8 13 30
30 48 16 19 27 37 23 41 -3 3 1 6 10 6 9 0 17 6 17 14 0 8 7 16 15 20 19 7 61
76 57 94 -5 20 27 84 39 80 11 -4 11 -10 2 -45 -3 -13 -9 -23 -14 -23 -5 0 -9
-11 -9 -24 0 -14 -5 -28 -10 -31 -6 -4 -8 -11 -4 -16 3 -5 10 -7 15 -4 12 8
12 4 -6 -39 -9 -20 -20 -34 -25 -31 -6 4 -9 -4 -7 -17 1 -18 -3 -23 -20 -23
-34 0 -74 -43 -66 -73 4 -17 2 -23 -5 -18 -13 8 -42 -31 -42 -57 0 -21 -79
-109 -91 -102 -8 6 -19 -19 -19 -43 0 -9 -23 -33 -51 -52 -27 -19 -81 -57
-119 -85 -130 -95 -188 -127 -290 -160 -30 -10 -59 -21 -65 -25 -5 -4 -46 -17
-90 -28 -91 -24 -310 -29 -425 -11 -106 16 -315 92 -470 171 -120 61 -155 84
-208 137 -57 57 -152 199 -152 226 0 6 -13 37 -29 70 -28 57 -69 175 -106 297
-9 31 -18 89 -19 130 -4 115 11 420 22 448 5 14 15 43 22 65 16 49 95 177 104
168 3 -3 6 3 6 15 0 20 30 91 39 92 2 0 1 -13 -2 -30z m53 -1 c0 -5 -4 -9 -10
-9 -5 0 -10 7 -10 16 0 8 5 12 10 9 6 -3 10 -10 10 -16z m3017 -5 c-3 -3 -12
-4 -19 -1 -8 3 -5 6 6 6 11 1 17 -2 13 -5z m-1437 -14 c13 -8 13 -10 -2 -10
-9 0 -20 5 -23 10 -8 13 5 13 25 0z m96 -34 c8 -8 14 -21 14 -28 0 -10 2 -10
9 1 7 11 10 9 16 -8 3 -11 13 -21 21 -21 8 0 12 -4 9 -10 -3 -5 3 -10 14 -10
20 0 38 -17 28 -27 -7 -6 -67 29 -67 39 0 4 -7 8 -15 8 -8 0 -15 5 -15 10 0 6
-11 22 -25 35 -13 14 -19 25 -14 25 6 0 17 -6 25 -14z m198 -160 c13 -12 32
-26 41 -30 10 -3 15 -9 12 -13 -4 -3 1 -12 10 -18 15 -11 15 -13 -6 -20 -23
-7 -24 -5 -100 78 l-24 27 22 0 c12 0 33 -11 45 -24z m-75 -40 c15 -8 34 -23
42 -32 10 -13 -2 -9 -36 10 -60 35 -62 36 -46 36 7 0 24 -6 40 -14z m167 -61
c9 -8 12 -19 9 -25 -3 -5 -1 -10 4 -10 6 0 11 -7 11 -15 0 -8 5 -14 12 -12 12
2 44 -51 35 -59 -5 -5 -84 98 -93 121 -8 19 3 19 22 0z m-86 -5 c0 -5 -2 -10
-4 -10 -3 0 -8 5 -11 10 -3 6 -1 10 4 10 6 0 11 -4 11 -10z m440 -25 c0 -15
-38 -55 -52 -55 -13 0 4 34 26 52 26 21 26 21 26 3z m-55 -75 c3 -5 1 -10 -4
-10 -6 0 -11 5 -11 10 0 6 2 10 4 10 3 0 8 -4 11 -10z m-2442 -97 c-6 -68 -23
-76 -23 -12 0 36 16 86 25 77 2 -2 1 -31 -2 -65z m2259 15 c-7 -7 -14 -3 -21
11 -10 17 -9 20 4 15 9 -4 15 0 16 7 1 8 3 6 6 -5 3 -10 0 -23 -5 -28z m-2125
-10 c-3 -7 -5 -2 -5 12 0 14 2 19 5 13 2 -7 2 -19 0 -25z m2240 -20 c-3 -8 -6
-5 -6 6 -1 11 2 17 5 13 3 -3 4 -12 1 -19z m-51 -75 c-10 -10 -19 5 -10 18 6
11 8 11 12 0 2 -7 1 -15 -2 -18z m-2199 -90 c-2 -16 -4 -5 -4 22 0 28 2 40 4
28 2 -13 2 -35 0 -50z m2198 -2 c-3 -12 -13 -21 -21 -21 -17 0 -18 14 -3 42
14 26 34 9 24 -21z m41 4 c-3 -8 -10 -15 -15 -15 -5 0 -4 11 2 25 12 25 23 16
13 -10z m-68 -48 c14 -17 0 -39 -20 -32 -10 4 -14 14 -11 26 6 22 16 24 31 6z
m47 -51 c0 -32 -3 -60 -7 -63 -5 -2 -8 15 -8 39 0 24 -3 54 -7 67 -4 18 -2 22
8 19 10 -3 14 -22 14 -62z m-2218 32 c-3 -8 -6 -5 -6 6 -1 11 2 17 5 13 3 -3
4 -12 1 -19z m2153 -40 c0 -5 -9 -6 -20 -3 -11 4 -20 2 -20 -4 0 -6 4 -11 10
-11 5 0 7 -7 4 -15 -7 -18 -34 -20 -34 -2 0 23 30 56 45 51 8 -4 15 -10 15
-16z m20 -48 c0 -5 -5 -10 -11 -10 -5 0 -7 5 -4 10 3 6 8 10 11 10 2 0 4 -4 4
-10z m-20 -140 c0 -5 -5 -10 -11 -10 -5 0 -7 5 -4 10 3 6 8 10 11 10 2 0 4 -4
4 -10z m-2020 -147 c14 -55 48 -111 99 -165 19 -21 32 -38 28 -38 -13 0 -48
35 -70 70 -11 19 -26 38 -33 42 -6 4 -17 29 -24 55 -7 27 -17 52 -21 58 -11
12 -11 25 0 25 4 0 14 -21 21 -47z m1680 -57 c0 -2 -8 -10 -17 -17 -16 -13
-17 -12 -4 4 13 16 21 21 21 13z m-1530 -166 c0 -5 -2 -10 -4 -10 -3 0 -8 5
-11 10 -3 6 -1 10 4 10 6 0 11 -4 11 -10z m116 -65 c25 -19 14 -19 -22 0 -16
8 -22 15 -13 15 8 0 24 -7 35 -15z m1070 -51 c-44 -39 -84 -59 -165 -80 -30
-8 -60 -18 -65 -23 -19 -14 -102 -33 -132 -29 -22 3 -14 6 34 15 35 7 91 23
125 36 34 13 83 32 108 41 25 9 55 25 67 36 12 11 26 20 32 20 5 0 10 5 10 10
0 6 6 10 13 10 6 0 -6 -16 -27 -36z m-960 -15 c9 -15 -23 -10 -35 5 -10 12 -8
13 9 9 11 -3 23 -9 26 -14z m148 -48 c11 -4 15 -10 9 -14 -5 -3 -19 0 -29 8
-20 15 -11 18 20 6z m159 -58 c-7 -2 -21 -2 -30 0 -10 3 -4 5 12 5 17 0 24 -2
18 -5z m172 -13 c-16 -4 -39 -8 -50 -8 l-20 -1 20 9 c11 5 34 8 50 8 l30 0
-30 -8z"/>
<path d="M905 3570 c-18 -8 -18 -9 5 -10 14 -1 36 -3 50 -6 24 -4 24 -3 6 11
-22 17 -32 18 -61 5z"/>
<path d="M1005 3560 c-4 -6 16 -10 56 -10 34 0 60 3 56 6 -11 11 -105 15 -112
4z"/>
<path d="M733 3544 c16 -9 36 -12 45 -8 14 6 13 8 -8 14 -14 5 -34 8 -45 9
-16 0 -14 -3 8 -15z"/>
<path d="M1528 3503 c6 -2 18 -2 25 0 6 3 1 5 -13 5 -14 0 -19 -2 -12 -5z"/>
<path d="M1580 3496 c0 -2 7 -7 16 -10 8 -3 12 -2 9 4 -6 10 -25 14 -25 6z"/>
<path d="M426 3454 c-4 -10 -1 -14 6 -12 15 5 23 28 10 28 -5 0 -13 -7 -16
-16z"/>
<path d="M245 3200 c3 -5 8 -10 11 -10 2 0 4 5 4 10 0 6 -5 10 -11 10 -5 0 -7
-4 -4 -10z"/>
<path d="M227 3156 c-3 -8 -2 -18 4 -22 16 -9 22 2 11 21 -8 15 -10 16 -15 1z"/>
<path d="M202 3100 c-9 -15 -10 -26 -3 -38 9 -14 10 -13 11 11 0 17 5 27 15
27 8 0 15 5 15 10 0 18 -25 11 -38 -10z"/>
<path d="M2370 2250 c0 -5 5 -10 10 -10 6 0 10 5 10 10 0 6 -4 10 -10 10 -5 0
-10 -4 -10 -10z"/>
<path d="M2075 1871 c-3 -5 -1 -12 4 -15 5 -3 11 1 15 9 6 16 -9 21 -19 6z"/>
</g>
</svg>
